<svg width="222" height="48" viewBox="0 0 222 48" fill="none" xmlns="http://www.w3.org/2000/svg">
<path d="M54.366 35.3849V11.795H60.3612C62.4664 11.795 63.9767 12.3436 64.9377 13.4408C65.8988 14.538 66.3564 16.1838 66.3564 18.2868C66.3564 20.2069 65.853 21.7155 64.8462 22.767C63.8394 23.8185 62.3291 24.3671 60.407 24.3671H57.7526V35.3392H54.366V35.3849ZM57.7526 22.0813H59.2629C60.7273 22.0813 61.7799 21.807 62.3291 21.3041C62.8783 20.8012 63.1529 19.7954 63.1529 18.3782C63.1529 17.7839 63.1529 17.281 63.1071 16.9153C63.0614 16.5495 63.0156 16.1838 62.9241 15.8181C62.8325 15.4981 62.6952 15.2238 62.5122 15.0409C62.3291 14.858 62.1003 14.6752 61.8257 14.5837C61.5511 14.4466 61.185 14.3551 60.7731 14.3094C60.3612 14.2637 59.9036 14.218 59.3086 14.218H57.7526V22.0813Z" fill="#041B67"/>
<path d="M72.9923 35.6591C72.0312 35.6591 71.2532 35.522 70.6125 35.2477C69.9718 34.9734 69.4226 34.5619 69.0565 33.9676C68.6904 33.419 68.4158 32.779 68.2327 32.0475C68.0497 31.316 67.9581 30.4474 67.9581 29.4874V24.5499C67.9581 23.5442 68.0497 22.7213 68.2327 21.9898C68.4158 21.2583 68.6904 20.6183 69.0565 20.0697C69.4226 19.5211 69.9718 19.1096 70.6125 18.7896C71.2532 18.5153 72.077 18.3782 72.9923 18.3782C74.8229 18.3782 76.1043 18.9268 76.8823 19.9783C77.6603 21.0297 78.0264 22.5841 78.0264 24.5957V29.4874C78.0264 31.4989 77.6603 33.0533 76.8823 34.1048C76.1043 35.1105 74.8229 35.6591 72.9923 35.6591ZM72.9923 33.3276C73.2669 33.3276 73.5414 33.2818 73.7703 33.1904C73.9991 33.099 74.1822 32.9618 74.2737 32.779C74.411 32.5961 74.5025 32.3675 74.594 32.1846C74.6856 32.0018 74.7313 31.7275 74.7771 31.4075C74.8229 31.0417 74.8229 30.7674 74.8229 30.5846C74.8229 30.356 74.8229 30.036 74.8229 29.6245V24.3671C74.8229 24.0013 74.8229 23.727 74.8229 23.5442C74.8229 23.3613 74.8229 23.1327 74.7771 22.8127C74.7771 22.4927 74.7313 22.2641 74.6856 22.0812C74.6398 21.8984 74.594 21.7155 74.5025 21.4869C74.411 21.2583 74.3194 21.1212 74.1822 20.984C74.0449 20.8926 73.9076 20.8012 73.6787 20.7097C73.4957 20.6183 73.2669 20.5726 72.9923 20.5726C72.7177 20.5726 72.5346 20.6183 72.3058 20.7097C72.1227 20.8012 71.9397 20.8926 71.8024 20.984C71.6651 21.0755 71.5736 21.2583 71.482 21.4869C71.3905 21.7155 71.3447 21.8984 71.299 22.0812C71.2532 22.2641 71.2074 22.4927 71.2074 22.8127C71.2074 23.1327 71.1617 23.3613 71.1617 23.5442C71.1617 23.727 71.1617 24.0013 71.1617 24.3671V29.6245C71.1617 29.9902 71.1617 30.2645 71.1617 30.4474C71.1617 30.6303 71.1617 30.8589 71.2074 31.1789C71.2074 31.4989 71.2532 31.7275 71.299 31.9103C71.3447 32.0932 71.3905 32.2761 71.482 32.4589C71.5736 32.6875 71.6651 32.8247 71.8024 32.9618C71.9397 33.0533 72.077 33.1447 72.3058 33.2361C72.4889 33.2819 72.7177 33.3276 72.9923 33.3276Z" fill="#041B67"/>
<path d="M81.0011 35.3391V11.7492H84.2046V25.8757L88.8727 18.561H92.2135L88.1404 25.1443L92.0762 35.3848H88.9184L85.6691 26.7901L84.2046 28.9388V35.3391H81.0011Z" fill="#041B67"/>
<path d="M98.5291 35.6591C97.5223 35.6591 96.6985 35.522 96.012 35.2477C95.3256 34.9734 94.8222 34.5162 94.456 33.9219C94.0899 33.3276 93.8153 32.6418 93.678 31.8646C93.5407 31.0874 93.4492 30.0817 93.4492 28.9388V25.0985C93.4492 23.9099 93.5407 22.9499 93.678 22.127C93.8611 21.304 94.0899 20.6183 94.5018 20.0697C94.8679 19.4754 95.4171 19.0639 96.0578 18.7896C96.7443 18.5153 97.5681 18.3782 98.5291 18.3782C99.1241 18.3782 99.6732 18.4239 100.177 18.561C100.634 18.6525 101.046 18.8353 101.412 19.0182C101.778 19.2011 102.053 19.4754 102.282 19.8411C102.511 20.1611 102.739 20.5269 102.877 20.8926C103.014 21.2583 103.151 21.7155 103.243 22.2641C103.334 22.8127 103.38 23.3156 103.426 23.8642C103.472 24.4128 103.472 25.0071 103.472 25.7386V27.1101H96.6528V29.3502V29.5331C96.6528 29.9902 96.6528 30.356 96.6528 30.5846C96.6528 30.8131 96.6985 31.0874 96.6985 31.4532C96.7443 31.8189 96.7901 32.0932 96.8816 32.2761C96.9731 32.4589 97.0646 32.6418 97.2019 32.8247C97.3392 33.0076 97.5223 33.1447 97.7511 33.2361C97.9799 33.3276 98.2545 33.3733 98.5291 33.3733C99.2156 33.3733 99.6732 33.1447 99.9478 32.6875C100.177 32.2304 100.314 31.5446 100.314 30.5846V29.5788H103.426V30.2188C103.426 33.8305 101.778 35.6591 98.5291 35.6591ZM96.6528 25.3271H100.314V23.8185C100.314 23.3613 100.314 22.9956 100.268 22.6756C100.222 22.3555 100.177 22.0812 100.131 21.8069C100.039 21.5326 99.9478 21.304 99.8105 21.1212C99.6732 20.9383 99.4902 20.8469 99.3071 20.7554C99.0783 20.664 98.8037 20.6183 98.5291 20.6183C97.7511 20.6183 97.2477 20.8926 97.0189 21.3955C96.79 21.9441 96.6528 22.9499 96.6528 24.4128V25.3271Z" fill="#041B67"/>
<path d="M106.401 35.3849V18.5611H109.604V20.9841C110.199 20.024 110.794 19.3383 111.435 18.9268C112.075 18.5154 112.716 18.3325 113.448 18.3325C113.631 18.3325 113.815 18.3325 113.952 18.3782V21.807C113.357 21.5784 112.762 21.4869 112.213 21.4869C111.664 21.4869 111.206 21.6241 110.794 21.8527C110.382 22.0813 110.016 22.4927 109.604 23.1328V35.4306H106.401V35.3849Z" fill="#041B67"/>
<path d="M116.194 35.3849V11.795H121.732C123.929 11.795 125.576 12.2522 126.629 13.2122C127.681 14.1723 128.231 15.6809 128.231 17.6925C128.231 20.7098 127.086 22.3556 124.752 22.6756C126.171 22.9956 127.224 23.6814 127.864 24.6414C128.505 25.6015 128.871 26.9273 128.871 28.6188C128.871 30.7218 128.368 32.4133 127.361 33.6019C126.354 34.7905 124.798 35.3849 122.693 35.3849H116.194ZM119.581 21.6698H121.549C122.922 21.6698 123.883 21.3498 124.432 20.7555C124.981 20.1612 125.256 19.1554 125.256 17.7382C125.256 17.281 125.21 16.8696 125.164 16.5038C125.118 16.1381 125.027 15.8638 124.89 15.6352C124.798 15.4066 124.615 15.178 124.386 14.9952C124.157 14.8123 123.929 14.6752 123.7 14.5837C123.471 14.4923 123.151 14.4009 122.784 14.3551C122.418 14.3094 122.052 14.2637 121.686 14.2637C121.32 14.2637 120.862 14.2637 120.313 14.2637H119.535V21.6698H119.581ZM119.581 33.0533H121.869C123.334 33.0533 124.341 32.7333 124.844 32.0475C125.393 31.3618 125.668 30.2646 125.668 28.6645C125.668 27.1558 125.347 26.0129 124.707 25.2815C124.066 24.55 123.013 24.1843 121.595 24.1843H119.581V33.0533Z" fill="#041B67"/>
<path d="M134.683 35.6592C133.722 35.6592 132.853 35.2477 132.212 34.4705C131.526 33.6933 131.205 32.779 131.205 31.7275C131.205 30.9503 131.342 30.2189 131.617 29.5788C131.892 28.9388 132.166 28.3902 132.487 28.0244C132.807 27.613 133.31 27.2015 134.043 26.7901C134.775 26.3786 135.37 26.0586 135.782 25.8758C136.194 25.6929 136.926 25.4186 137.933 25.0071C137.978 24.9614 138.024 24.9614 138.07 24.9614V23.7728C138.07 22.6756 137.933 21.8984 137.75 21.4412C137.521 20.9841 137.063 20.7555 136.377 20.7555C135.187 20.7555 134.546 21.5327 134.546 23.1328V23.9557L131.388 23.8642C131.388 23.6814 131.388 23.4985 131.434 23.2242C131.526 21.5327 132.029 20.344 132.898 19.5668C133.768 18.7897 135.004 18.4239 136.605 18.4239C138.253 18.4239 139.489 18.8811 140.221 19.7497C140.953 20.6183 141.319 21.9898 141.319 23.7728V31.4532C141.319 32.7333 141.411 34.0591 141.594 35.4763H138.665C138.482 34.5162 138.299 33.6933 138.253 33.0076C138.024 33.7848 137.612 34.4248 137.017 34.9277C136.377 35.3849 135.599 35.6592 134.683 35.6592ZM135.965 32.9619C136.377 32.9619 136.789 32.8247 137.155 32.5047C137.567 32.1847 137.841 31.8647 138.024 31.5904V26.7901C136.926 27.3844 136.148 27.8416 135.827 28.1616C134.912 28.8931 134.409 29.7617 134.409 30.8132C134.409 31.4989 134.546 32.0475 134.821 32.4133C135.095 32.7333 135.461 32.9619 135.965 32.9619Z" fill="#041B67"/>
<path d="M147.406 35.6592C146.445 35.6592 145.575 35.2477 144.935 34.4705C144.248 33.6933 143.928 32.779 143.928 31.7275C143.928 30.9503 144.065 30.2189 144.34 29.5788C144.614 28.9388 144.889 28.3902 145.209 28.0244C145.53 27.613 146.033 27.2015 146.765 26.7901C147.497 26.3786 148.092 26.0586 148.504 25.8758C148.916 25.6929 149.648 25.4186 150.655 25.0071C150.701 24.9614 150.747 24.9614 150.793 24.9614V23.7728C150.793 22.6756 150.655 21.8984 150.472 21.4412C150.243 20.9841 149.786 20.7555 149.099 20.7555C147.909 20.7555 147.269 21.5327 147.269 23.1328V23.9557L144.111 23.8642C144.111 23.6814 144.111 23.4985 144.157 23.2242C144.248 21.5327 144.752 20.344 145.621 19.5668C146.491 18.7897 147.726 18.4239 149.328 18.4239C150.976 18.4239 152.211 18.8811 152.943 19.7497C153.676 20.6183 154.042 21.9898 154.042 23.7728V31.4532C154.042 32.7333 154.133 34.0591 154.316 35.4763H151.387C151.204 34.5162 151.021 33.6933 150.976 33.0076C150.747 33.7848 150.335 34.4248 149.74 34.9277C149.099 35.3849 148.321 35.6592 147.406 35.6592ZM148.687 32.9619C149.099 32.9619 149.511 32.8247 149.877 32.5047C150.289 32.1847 150.564 31.8647 150.747 31.5904V26.7901C149.648 27.3844 148.87 27.8416 148.55 28.1616C147.635 28.8931 147.131 29.7617 147.131 30.8132C147.131 31.4989 147.269 32.0475 147.543 32.4133C147.818 32.7333 148.184 32.9619 148.687 32.9619Z" fill="#041B67"/>
<path d="M156.376 35.3849V33.3276L161.685 20.8926H156.925V18.5611H165.117V20.2526L159.808 33.0533H164.98V35.3849H156.376Z" fill="#041B67"/>
<path d="M167.588 12.8007H170.792V16.0923H167.588V12.8007ZM167.588 18.561H170.792V35.3848H167.588V18.561Z" fill="#041B67"/>
<path d="M177.29 31.9561H174.087V35.4306H177.29V31.9561Z" fill="#041B67"/>
<path d="M184.567 35.6591C183.743 35.6591 183.011 35.5677 182.416 35.3391C181.821 35.1105 181.318 34.8362 180.952 34.4705C180.585 34.1048 180.311 33.6476 180.082 33.0533C179.853 32.459 179.716 31.8646 179.624 31.2246C179.533 30.5846 179.487 29.8531 179.487 28.9845V25.0985C179.487 23.9556 179.533 23.0413 179.67 22.2641C179.807 21.4869 180.036 20.8012 180.402 20.2068C180.769 19.6125 181.272 19.1554 181.958 18.8353C182.645 18.561 183.469 18.3782 184.475 18.3782C185.391 18.3782 186.169 18.4696 186.81 18.6982C187.45 18.9268 187.908 19.2468 188.274 19.704C188.64 20.1611 188.869 20.7097 189.006 21.3498C189.144 21.9898 189.235 22.7213 189.235 23.6356V24.6414H186.352V23.6356C186.352 22.5384 186.215 21.7612 185.986 21.304C185.711 20.8469 185.254 20.664 184.567 20.664C183.789 20.664 183.286 20.9383 183.057 21.4412C182.828 21.9898 182.691 22.9499 182.691 24.4585V29.7617C182.691 31.1789 182.828 32.1389 183.103 32.6418C183.377 33.1447 183.881 33.3733 184.613 33.3733C184.933 33.3733 185.208 33.3276 185.391 33.2361C185.62 33.1447 185.803 33.0076 185.894 32.8704C186.032 32.7332 186.123 32.5047 186.169 32.2304C186.215 31.9561 186.26 31.6818 186.306 31.4532C186.306 31.1789 186.352 30.8589 186.352 30.4931V29.1216H189.235V30.3103C189.235 31.2246 189.144 32.0018 189.006 32.5961C188.869 33.2361 188.594 33.7847 188.274 34.2876C187.908 34.7905 187.45 35.1562 186.81 35.3848C186.26 35.522 185.482 35.6591 184.567 35.6591Z" fill="#041B67"/>
<path d="M196.832 35.6591C195.871 35.6591 195.093 35.522 194.452 35.2477C193.812 34.9734 193.262 34.5619 192.896 33.9676C192.53 33.419 192.256 32.779 192.073 32.0475C191.889 31.316 191.798 30.4474 191.798 29.4874V24.5499C191.798 23.5442 191.889 22.7213 192.073 21.9898C192.256 21.2583 192.53 20.6183 192.896 20.0697C193.262 19.5211 193.812 19.1096 194.452 18.7896C195.093 18.5153 195.917 18.3782 196.832 18.3782C198.663 18.3782 199.944 18.9268 200.722 19.9783C201.5 21.0297 201.866 22.5841 201.866 24.5957V29.4874C201.866 31.4989 201.5 33.0533 200.722 34.1048C199.99 35.1105 198.663 35.6591 196.832 35.6591ZM196.832 33.3276C197.107 33.3276 197.381 33.2818 197.61 33.1904C197.839 33.099 198.022 32.9618 198.113 32.779C198.251 32.5961 198.342 32.3675 198.434 32.1846C198.525 32.0018 198.571 31.7275 198.617 31.4075C198.663 31.0417 198.663 30.7674 198.663 30.5846C198.663 30.356 198.663 30.036 198.663 29.6245V24.3671C198.663 24.0013 198.663 23.727 198.663 23.5442C198.663 23.3613 198.663 23.1327 198.617 22.8127C198.617 22.4927 198.571 22.2641 198.525 22.0812C198.48 21.8984 198.434 21.7155 198.342 21.4869C198.251 21.2583 198.159 21.1212 198.022 20.984C197.885 20.8926 197.747 20.8012 197.519 20.7097C197.335 20.6183 197.107 20.5726 196.832 20.5726C196.557 20.5726 196.374 20.6183 196.146 20.7097C195.963 20.8012 195.779 20.8926 195.642 20.984C195.505 21.0755 195.413 21.2583 195.322 21.4869C195.23 21.7155 195.139 21.8984 195.139 22.0812C195.093 22.2641 195.047 22.4927 195.047 22.8127C195.047 23.1327 195.001 23.3613 195.001 23.5442C195.001 23.727 195.001 24.0013 195.001 24.3671V29.6245C195.001 29.9902 195.001 30.2645 195.001 30.4474C195.001 30.6303 195.001 30.8589 195.047 31.1789C195.047 31.4989 195.093 31.7275 195.139 31.9103C195.185 32.0932 195.23 32.2761 195.322 32.4589C195.413 32.6875 195.505 32.8247 195.642 32.9618C195.779 33.0533 195.917 33.1447 196.146 33.2361C196.374 33.2819 196.603 33.3276 196.832 33.3276Z" fill="#041B67"/>
<path d="M204.795 35.3848V18.561H207.724V20.1611C208.914 18.881 210.241 18.2867 211.797 18.2867C213.262 18.2867 214.177 19.0182 214.589 20.4354C215.779 19.0182 217.243 18.2867 218.891 18.2867C219.806 18.2867 220.538 18.6067 221.087 19.2468C221.637 19.8868 221.957 20.8926 221.957 22.2184V35.4305H219.028V22.3555C219.028 21.5783 218.891 21.0297 218.662 20.7554C218.387 20.4354 218.021 20.2983 217.563 20.2983C216.648 20.2983 215.779 20.7554 214.863 21.6698C214.863 21.7612 214.863 21.9441 214.863 22.1726V35.3848H211.934V22.3555C211.934 21.5783 211.797 21.0297 211.568 20.7554C211.294 20.4354 210.928 20.2983 210.47 20.2983C209.6 20.2983 208.685 20.7554 207.77 21.6698V35.3848H204.795Z" fill="#041B67"/>
<path d="M47.4555 23.6813C47.4555 36.7563 36.838 47.3626 23.7493 47.3626C10.6605 47.3626 0.0430908 36.7563 0.0430908 23.6813C0.0430908 10.6063 10.6605 0 23.7493 0C36.8838 0 47.4555 10.6063 47.4555 23.6813Z" fill="#041B67"/>
<path d="M29.3784 13.4408C30.6141 13.4408 31.6209 13.5779 32.4904 13.8522C33.36 14.1265 34.0464 14.4923 34.5956 14.9951C35.1448 15.498 35.5567 16.0923 35.8313 16.7324C36.1058 17.4181 36.2431 18.1496 36.2431 18.9268C36.2431 20.1611 36.0143 21.1212 35.5109 21.8984C35.0075 22.6756 34.2753 23.2242 33.36 23.6356C34.321 24.0471 35.0533 24.6414 35.5567 25.4186C36.0601 26.1958 36.3347 27.2015 36.3347 28.4359C36.3347 29.2131 36.1974 29.9445 35.9228 30.5846C35.6482 31.2703 35.2363 31.8189 34.6871 32.3218C34.138 32.8247 33.4515 33.1904 32.582 33.5105C31.7124 33.8305 30.7056 33.9219 29.4699 33.9219H19.1271V30.356H29.4699C30.5225 30.356 31.3005 30.1274 31.804 29.6702C32.3074 29.2131 32.582 28.573 32.582 27.7501C32.582 26.1043 31.5294 25.2814 29.4699 25.2814H23.1544V22.0355H29.3784C30.431 22.0355 31.209 21.8527 31.7124 21.4412C32.2158 21.0298 32.4904 20.4354 32.4904 19.5668C32.4904 18.7896 32.2616 18.1953 31.7582 17.7381C31.2548 17.281 30.4768 17.0524 29.3784 17.0524H19.1728V13.4865H29.3784V13.4408Z" fill="white"/>
<path d="M20.3627 13.395C21.3695 13.395 22.239 13.5779 22.9713 13.8979C23.7035 14.2179 24.2985 14.6751 24.7561 15.2237C25.2138 15.7723 25.5799 16.4581 25.8087 17.1895C26.0375 17.921 26.1291 18.7439 26.1291 19.5211C26.1291 20.2983 26.0375 21.0755 25.8087 21.8526C25.6256 22.6298 25.2595 23.3156 24.8019 23.9099C24.3442 24.5042 23.7493 25.0071 23.017 25.4186C22.2848 25.7843 21.4153 26.0129 20.3627 26.0129H14.8251C14.5048 26.0129 14.3675 26.1957 14.3675 26.5158V33.9676H11.2555V25.83C11.2555 24.6871 11.4843 23.8185 11.8962 23.3156C12.3538 22.8127 13.0403 22.5384 14.0471 22.5384H20.4542C20.9119 22.5384 21.278 22.447 21.5983 22.3098C21.9187 22.1269 22.1933 21.9441 22.3763 21.6698C22.5594 21.3955 22.6967 21.1212 22.834 20.7554C22.9255 20.4354 22.9713 20.0697 22.9713 19.704C22.9713 18.9725 22.7882 18.2867 22.3763 17.7839C21.9645 17.2352 21.3695 16.9609 20.5 16.9609H11.2097V13.3493L20.3627 13.395Z" fill="white"/>
</svg>
